<svg width="1440" height="2660" viewBox="0 0 1440 2660" fill="none" xmlns="http://www.w3.org/2000/svg">
<mask id="mask0_891_127" style="mask-type:luminance" maskUnits="userSpaceOnUse" x="58" y="447" width="1854" height="889">
<path d="M1845.86 528.074C1817.2 486.033 1698.26 443.964 1679.78 483.825C1609.01 426.045 1571.66 477.734 1571.66 477.734C1530.83 429.493 1491.88 470.994 1491.88 470.994C1467.3 425.529 1426.95 459.916 1426.95 459.916C1319.24 426.245 1358.32 510.107 1358.32 510.107C1238.49 432.335 1237.79 517.806 1237.79 517.806C1153.62 479.753 1135.09 545.375 1135.09 545.375C1114.05 491.339 1067.58 530.028 1067.58 530.028C985.156 456.35 942.095 539.181 942.095 539.181C940.647 537.143 909.956 495.45 852.71 489.279C815.479 485.267 781.396 497.837 763.809 522.005C738.04 507.277 705.22 492.208 665.915 482.115C517.048 443.874 372.334 537.958 374.115 574.311C170.092 566.121 96.7685 1026.32 58.652 1107.7C1038.47 1472.87 364.082 1303.99 1548.58 1244.45C1958.99 877.562 1960.74 871.95 1845.86 528.074Z" fill="white"/>
</mask>
<g mask="url(#mask0_891_127)">
<path d="M2604.43 800.227L4044.4 -199.349L980.387 -1345.36L-303.067 774.227L2604.43 800.227Z" fill="url(#paint0_linear_891_127)"/>
</g>
<mask id="mask1_891_127" style="mask-type:luminance" maskUnits="userSpaceOnUse" x="-458" y="497" width="2459" height="1014">
<path d="M-445.39 1193.96C344.387 1475.86 328.838 1228.58 1118.61 1510.49L2000.62 1244.21C2000.62 1244.21 1817.91 725.945 1775.14 681.541C1732.37 637.138 1683.21 662.156 1667.46 686.017C1644.01 655.659 1581.03 653.961 1557.53 684.821C1510.65 652.57 1443.62 653.63 1437.1 689.827C1413.3 661.796 1277.17 608.179 1270.23 679.322C1270.23 679.322 1172.43 654.843 1159.37 688.864C1145.02 662.625 1019.54 629.747 1027.19 689.424C1027.19 689.424 951.589 672.615 959.486 709.679C938.046 671.15 883.834 595.142 795.141 608.998C795.141 608.998 683.483 524.388 644.521 597.045C644.521 597.045 519.094 533.879 521.71 613.733C521.71 613.733 442.285 502.95 367.679 581.79C367.679 581.79 285.313 507.552 256.108 583.661C256.108 583.661 199.604 499.78 141.319 550.565C141.319 550.565 64.2185 448.127 -16.5226 528.554C-16.5226 528.554 -146.626 448.698 -146.953 565.095C-146.953 565.095 -230.825 549.406 -228.738 618.223C-228.738 618.223 -374.549 616.319 -306.657 701.057C-306.657 701.057 -488.066 731.763 -350.405 877.533C-403.646 858.698 -445.705 967.383 -369.937 1073C-463.343 1061.77 -469.114 1128.29 -445.39 1193.96Z" fill="white"/>
</mask>
<g mask="url(#mask1_891_127)">
<path d="M2667.5 -158.906L2037.3 2201.77L-874.157 1365.71L-243.955 -994.97L2667.5 -158.906Z" fill="url(#paint1_linear_891_127)"/>
</g>
<mask id="mask2_891_127" style="mask-type:luminance" maskUnits="userSpaceOnUse" x="-432" y="686" width="2547" height="1407">
<path d="M1810.7 893.79C1762.1 777.883 1665.56 885.311 1665.56 885.311C1643.14 830.347 1588.46 870.143 1588.46 870.143C1542.11 731.689 1479.18 850.607 1479.18 850.607C1450.74 681.547 1343.13 777.883 1343.13 777.883C1244.95 648.923 1194.5 786.066 1194.5 786.066C1125.38 703.534 1090.54 816.822 1090.54 816.822C1043.66 701.9 981.262 797.287 981.262 797.287C889.443 671.555 838.745 820.453 838.745 820.453C822 704.891 714.925 777.709 714.925 777.709C659.366 666.328 570.899 772.348 570.899 772.348C481.047 738.871 451.785 786.13 440.199 838.856C412.199 777.709 358.699 816.822 358.699 816.822C351.746 731.312 279.699 741.434 244.716 773.507C252.377 770.513 106.735 635.591 48.1628 759.138C-100.894 581.923 -126.141 784.241 -126.141 784.241C-126.141 784.241 -368.304 700.434 -368.305 937.934C12.9957 1864.45 -696.106 1165.91 -314.805 2092.43C838.745 1911.93 984.64 2229.58 2114.68 1762.8C1990.17 1465.86 1935.19 1190.73 1810.7 893.79Z" fill="white"/>
</mask>
<g mask="url(#mask2_891_127)">
<path d="M-2662 -358.139L-1223.88 3167.5L2181 1778.64L742.882 -1747L-2662 -358.139Z" fill="url(#paint2_linear_891_127)"/>
<path d="M-2662 -358.139L-1223.88 3167.5L2181 1778.64L742.882 -1747L-2662 -358.139Z" fill="url(#paint3_linear_891_127)"/>
</g>
<defs>
<linearGradient id="paint0_linear_891_127" x1="726.436" y1="963.726" x2="732.233" y2="519.614" gradientUnits="userSpaceOnUse">
<stop offset="0.478336" stop-color="#4FB6E7" stop-opacity="0"/>
<stop offset="0.583736" stop-color="#3F87A8"/>
<stop offset="0.952732" stop-color="#66CAEE"/>
</linearGradient>
<linearGradient id="paint1_linear_891_127" x1="728.023" y1="596.248" x2="722.658" y2="1216.54" gradientUnits="userSpaceOnUse">
<stop stop-color="#63CFEA"/>
<stop offset="0.251428" stop-color="#088AB9"/>
<stop offset="0.491428" stop-color="#146EC0" stop-opacity="0.6"/>
<stop offset="0.851428" stop-color="#3286AF" stop-opacity="0"/>
</linearGradient>
<linearGradient id="paint2_linear_891_127" x1="-1942.94" y1="1404.68" x2="1461.94" y2="15.8194" gradientUnits="userSpaceOnUse">
<stop stop-color="#1673B3"/>
<stop offset="0.125" stop-color="#1673B3"/>
<stop offset="0.15625" stop-color="#1673B3"/>
<stop offset="0.160156" stop-color="#1773B3"/>
<stop offset="0.164062" stop-color="#1873B3"/>
<stop offset="0.167969" stop-color="#1974B3"/>
<stop offset="0.171875" stop-color="#1A75B4"/>
<stop offset="0.175781" stop-color="#1B75B4"/>
<stop offset="0.179687" stop-color="#1C76B4"/>
<stop offset="0.183594" stop-color="#1D76B4"/>
<stop offset="0.1875" stop-color="#1E77B5"/>
<stop offset="0.191406" stop-color="#2077B5"/>
<stop offset="0.195312" stop-color="#2178B5"/>
<stop offset="0.199219" stop-color="#2279B5"/>
<stop offset="0.203125" stop-color="#2379B5"/>
<stop offset="0.207031" stop-color="#247AB6"/>
<stop offset="0.210938" stop-color="#257AB6"/>
<stop offset="0.214844" stop-color="#267BB6"/>
<stop offset="0.21875" stop-color="#277CB6"/>
<stop offset="0.222656" stop-color="#287CB7"/>
<stop offset="0.226562" stop-color="#297DB7"/>
<stop offset="0.230469" stop-color="#2B7EB7"/>
<stop offset="0.234375" stop-color="#2C7EB7"/>
<stop offset="0.238281" stop-color="#2D7FB7"/>
<stop offset="0.242188" stop-color="#2E7FB8"/>
<stop offset="0.246094" stop-color="#2F80B8"/>
<stop offset="0.25" stop-color="#3081B8"/>
<stop offset="0.253906" stop-color="#3181B8"/>
<stop offset="0.257813" stop-color="#3282B9"/>
<stop offset="0.261719" stop-color="#3483B9"/>
<stop offset="0.265625" stop-color="#3583B9"/>
<stop offset="0.269531" stop-color="#3684B9"/>
<stop offset="0.273438" stop-color="#3785B9"/>
<stop offset="0.277344" stop-color="#3885BA"/>
<stop offset="0.28125" stop-color="#3986BA"/>
<stop offset="0.285156" stop-color="#3A87BA"/>
<stop offset="0.289062" stop-color="#3C88BA"/>
<stop offset="0.292969" stop-color="#3D88BA"/>
<stop offset="0.296875" stop-color="#3E89BB"/>
<stop offset="0.300781" stop-color="#3F8ABB"/>
<stop offset="0.304688" stop-color="#408ABB"/>
<stop offset="0.308594" stop-color="#418BBB"/>
<stop offset="0.3125" stop-color="#428CBB"/>
<stop offset="0.316406" stop-color="#448DBC"/>
<stop offset="0.320312" stop-color="#458DBC"/>
<stop offset="0.324219" stop-color="#468EBC"/>
<stop offset="0.328125" stop-color="#478FBC"/>
<stop offset="0.332031" stop-color="#4890BD"/>
<stop offset="0.335938" stop-color="#4A90BD"/>
<stop offset="0.339844" stop-color="#4B91BD"/>
<stop offset="0.34375" stop-color="#4C92BD"/>
<stop offset="0.347656" stop-color="#4D93BD"/>
<stop offset="0.351562" stop-color="#4E93BE"/>
<stop offset="0.355469" stop-color="#4F94BE"/>
<stop offset="0.359375" stop-color="#5195BE"/>
<stop offset="0.363281" stop-color="#5296BE"/>
<stop offset="0.367188" stop-color="#5397BE"/>
<stop offset="0.371094" stop-color="#5497BF"/>
<stop offset="0.375" stop-color="#5598BF"/>
<stop offset="0.378906" stop-color="#5799BF"/>
<stop offset="0.382812" stop-color="#589ABF"/>
<stop offset="0.386719" stop-color="#599BBF"/>
<stop offset="0.390625" stop-color="#5A9BC0"/>
<stop offset="0.394531" stop-color="#5B9CC0"/>
<stop offset="0.398438" stop-color="#5D9DC0"/>
<stop offset="0.402344" stop-color="#5E9EC0"/>
<stop offset="0.40625" stop-color="#5F9FC0"/>
<stop offset="0.410156" stop-color="#60A0C1"/>
<stop offset="0.414062" stop-color="#62A0C1"/>
<stop offset="0.417969" stop-color="#63A1C1"/>
<stop offset="0.421875" stop-color="#64A2C1"/>
<stop offset="0.425781" stop-color="#65A3C2"/>
<stop offset="0.429688" stop-color="#67A4C2"/>
<stop offset="0.433594" stop-color="#68A5C2"/>
<stop offset="0.4375" stop-color="#69A6C2"/>
<stop offset="0.441406" stop-color="#6AA7C2"/>
<stop offset="0.445312" stop-color="#6CA7C3"/>
<stop offset="0.449219" stop-color="#6DA8C3"/>
<stop offset="0.453125" stop-color="#6EA9C3"/>
<stop offset="0.457031" stop-color="#6FAAC3"/>
<stop offset="0.460938" stop-color="#71ABC3"/>
<stop offset="0.464844" stop-color="#72ACC4"/>
<stop offset="0.46875" stop-color="#73ADC4"/>
<stop offset="0.472656" stop-color="#74AEC4"/>
<stop offset="0.476562" stop-color="#76AFC4"/>
<stop offset="0.480469" stop-color="#77B0C4"/>
<stop offset="0.484375" stop-color="#78B1C4"/>
<stop offset="0.488281" stop-color="#79B2C5"/>
<stop offset="0.492188" stop-color="#7BB3C5"/>
<stop offset="0.496094" stop-color="#7CB3C5"/>
<stop offset="0.5" stop-color="#7DB4C5"/>
<stop offset="0.503906" stop-color="#7FB5C5"/>
<stop offset="0.507813" stop-color="#80B6C6"/>
<stop offset="0.511719" stop-color="#81B7C6"/>
<stop offset="0.515625" stop-color="#82B8C6"/>
<stop offset="0.519531" stop-color="#84B9C6"/>
<stop offset="0.523438" stop-color="#85BAC6"/>
<stop offset="0.527344" stop-color="#86BBC7"/>
<stop offset="0.53125" stop-color="#88BCC7"/>
<stop offset="0.535156" stop-color="#89BDC7"/>
<stop offset="0.539062" stop-color="#8ABEC7"/>
<stop offset="0.542969" stop-color="#8CBFC7"/>
<stop offset="0.546875" stop-color="#8DC0C8"/>
<stop offset="0.550781" stop-color="#8EC1C8"/>
<stop offset="0.554687" stop-color="#8FC2C8"/>
<stop offset="0.558594" stop-color="#91C3C8"/>
<stop offset="0.5625" stop-color="#92C4C8"/>
<stop offset="0.566406" stop-color="#93C5C8"/>
<stop offset="0.570312" stop-color="#93C5C9"/>
<stop offset="0.574219" stop-color="#94C6C9"/>
<stop offset="0.578125" stop-color="#95C6C9"/>
<stop offset="0.582031" stop-color="#95C6C9"/>
<stop offset="0.585937" stop-color="#96C7C9"/>
<stop offset="0.589844" stop-color="#96C7C9"/>
<stop offset="0.59375" stop-color="#97C7C9"/>
<stop offset="0.597656" stop-color="#98C8C9"/>
<stop offset="0.601562" stop-color="#98C8C9"/>
<stop offset="0.605469" stop-color="#99C8CA"/>
<stop offset="0.609375" stop-color="#99C9CA"/>
<stop offset="0.613281" stop-color="#9AC9CA"/>
<stop offset="0.617187" stop-color="#9BCACA"/>
<stop offset="0.621094" stop-color="#9BCACA"/>
<stop offset="0.625" stop-color="#9CCACA"/>
<stop offset="0.628906" stop-color="#9CCBCA"/>
<stop offset="0.632812" stop-color="#9DCBCA"/>
<stop offset="0.636719" stop-color="#9ECBCB"/>
<stop offset="0.640625" stop-color="#9ECCCB"/>
<stop offset="0.644531" stop-color="#9FCCCB"/>
<stop offset="0.648437" stop-color="#9FCCCB"/>
<stop offset="0.652344" stop-color="#A0CDCB"/>
<stop offset="0.65625" stop-color="#A1CDCB"/>
<stop offset="0.660156" stop-color="#A1CECB"/>
<stop offset="0.664062" stop-color="#A2CECB"/>
<stop offset="0.667969" stop-color="#A2CECB"/>
<stop offset="0.671875" stop-color="#A3CFCC"/>
<stop offset="0.675781" stop-color="#A3CFCC"/>
<stop offset="0.679688" stop-color="#A4CFCC"/>
<stop offset="0.683594" stop-color="#A5D0CC"/>
<stop offset="0.6875" stop-color="#A5D0CC"/>
<stop offset="0.691406" stop-color="#A6D1CC"/>
<stop offset="0.695312" stop-color="#A6D1CC"/>
<stop offset="0.699219" stop-color="#A7D1CC"/>
<stop offset="0.703125" stop-color="#A8D2CD"/>
<stop offset="0.707031" stop-color="#A8D2CD"/>
<stop offset="0.710937" stop-color="#A9D2CD"/>
<stop offset="0.714844" stop-color="#A9D3CD"/>
<stop offset="0.71875" stop-color="#AAD3CD"/>
<stop offset="0.722656" stop-color="#ABD4CD"/>
<stop offset="0.726562" stop-color="#ABD4CD"/>
<stop offset="0.730469" stop-color="#ACD4CD"/>
<stop offset="0.734375" stop-color="#ACD5CD"/>
<stop offset="0.738281" stop-color="#ADD5CE"/>
<stop offset="0.742188" stop-color="#AED5CE"/>
<stop offset="0.746094" stop-color="#AED6CE"/>
<stop offset="0.75" stop-color="#AFD6CE"/>
<stop offset="0.753906" stop-color="#B0D7CE"/>
<stop offset="0.757812" stop-color="#B0D7CE"/>
<stop offset="0.761719" stop-color="#B1D7CE"/>
<stop offset="0.765625" stop-color="#B1D8CE"/>
<stop offset="0.769531" stop-color="#B2D8CF"/>
<stop offset="0.773437" stop-color="#B3D8CF"/>
<stop offset="0.777344" stop-color="#B3D9CF"/>
<stop offset="0.78125" stop-color="#B4D9CF"/>
<stop offset="0.785156" stop-color="#B4DACF"/>
<stop offset="0.789062" stop-color="#B5DACF"/>
<stop offset="0.792969" stop-color="#B6DACF"/>
<stop offset="0.796875" stop-color="#B6DBCF"/>
<stop offset="0.800781" stop-color="#B7DBD0"/>
<stop offset="0.804688" stop-color="#B7DCD0"/>
<stop offset="0.808594" stop-color="#B8DCD0"/>
<stop offset="0.8125" stop-color="#B9DCD0"/>
<stop offset="0.816406" stop-color="#B9DDD0"/>
<stop offset="0.820312" stop-color="#BADDD0"/>
<stop offset="0.824219" stop-color="#BADED0"/>
<stop offset="0.828125" stop-color="#BBDED0"/>
<stop offset="0.832031" stop-color="#BCDED1"/>
<stop offset="0.835937" stop-color="#BCDFD1"/>
<stop offset="0.839844" stop-color="#BDDFD1"/>
<stop offset="0.84375" stop-color="#BDE0D1"/>
<stop offset="0.847656" stop-color="#BEE0D1"/>
<stop offset="0.851562" stop-color="#BFE0D1"/>
<stop offset="0.855469" stop-color="#BFE1D1"/>
<stop offset="0.859375" stop-color="#C0E1D1"/>
<stop offset="0.863281" stop-color="#C1E2D2"/>
<stop offset="0.867188" stop-color="#C1E2D2"/>
<stop offset="0.871094" stop-color="#C2E2D2"/>
<stop offset="0.875" stop-color="#C2E3D2"/>
<stop offset="0.878906" stop-color="#C3E3D2"/>
<stop offset="0.882812" stop-color="#C4E4D2"/>
<stop offset="0.886719" stop-color="#C4E4D2"/>
<stop offset="0.890625" stop-color="#C5E4D2"/>
<stop offset="0.894531" stop-color="#C5E5D3"/>
<stop offset="0.898437" stop-color="#C6E5D3"/>
<stop offset="0.902344" stop-color="#C7E6D3"/>
<stop offset="0.90625" stop-color="#C7E6D3"/>
<stop offset="0.910156" stop-color="#C8E6D3"/>
<stop offset="0.914063" stop-color="#C9E7D3"/>
<stop offset="0.917969" stop-color="#C9E7D3"/>
<stop offset="0.921875" stop-color="#CAE8D3"/>
<stop offset="0.925781" stop-color="#CAE8D4"/>
<stop offset="0.929688" stop-color="#CBE8D4"/>
<stop offset="0.933594" stop-color="#CCE9D4"/>
<stop offset="0.9375" stop-color="#CCE9D4"/>
<stop offset="0.941406" stop-color="#CDEAD4"/>
<stop offset="0.945312" stop-color="#CDEAD4"/>
<stop offset="0.949219" stop-color="#CEEBD4"/>
<stop offset="0.953125" stop-color="#CFEBD5"/>
<stop offset="0.957031" stop-color="#CFEBD5"/>
<stop offset="0.960937" stop-color="#D0ECD5"/>
<stop offset="0.964844" stop-color="#D1ECD5"/>
<stop offset="0.96875" stop-color="#D1EDD5"/>
<stop offset="0.972656" stop-color="#D2EDD5"/>
<stop offset="0.976563" stop-color="#D2EDD5"/>
<stop offset="0.980469" stop-color="#D3EED5"/>
<stop offset="0.984375" stop-color="#D4EED6"/>
<stop offset="0.988281" stop-color="#D4EFD6"/>
<stop offset="0.992188" stop-color="#D5EFD6"/>
<stop offset="0.996094" stop-color="#D6F0D6"/>
<stop offset="1" stop-color="#D6F0D6"/>
</linearGradient>
<linearGradient id="paint3_linear_891_127" x1="186.166" y1="877.178" x2="315.967" y2="2693.47" gradientUnits="userSpaceOnUse">
<stop stop-color="#DAFFE9"/>
<stop offset="0.691356" stop-color="#E4EFD3"/>
<stop offset="0.839437" stop-color="#E4EFD3" stop-opacity="0.5"/>
</linearGradient>
</defs>
</svg>
